# xmcd
#
# Track frame offsets: 
#        150
#        49463
#        52743
#        58853
#        63988
#        70588
#        76973
#        94523
#        98898
#        141248
#        173238
#        217598
#        250778
#        265538
#        288088
#
# Disc length: 4062 seconds
#
# Revision: 1
# Processed by: cddbd v1.5.2PL0 Copyright (c) Steve Scherf et al.
# Submitted via: ExactAudioCopy v1.0b1
#
DISCID=c70fdc0f
DTITLE=Dmitry Kabalevsky - Piano Concertos No.1 and 4, Symphony No.2
DYEAR=2006
DGENRE=Classical
TTITLE0=Piano Concerto No.1, Op.9 - I. Moderato quasi andantino
TTITLE1=Piano Concerto No.1, Op.9 - II. Tema. Moderato -
TTITLE2=Piano Concerto No.1, Op.9 - II. Variation 1. L'istesso tempo -
TTITLE3=Piano Concerto No.1, Op.9 - II. Variation 2. Allegro assai - A
TTITLE3=ndante -
TTITLE4=Piano Concerto No.1, Op.9 - II. Variation 3. (Andante) - Poco 
TTITLE4=piu mosso -
TTITLE5=Piano Concerto No.1, Op.9 - II. Variation 4. [] - Vivace - Piu
TTITLE5=mosso - Tempo I
TTITLE6=Piano Concerto No.1, Op.9 - II. Variation 5. Funebre - Maestos
TTITLE6=o -
TTITLE7=Piano Concerto No.1, Op.9 - II. Coda (Tempo di tema) -
TTITLE8=Piano Concerto No.1, Op.9 - III. Vivace marcato
TTITLE9=Symphony No.2, Op.19 - I. Allegro quasi presto
TTITLE10=Symphony No.2, Op.19 - II. Andante non troppo
TTITLE11=Symphony No.2, Op.19 - III. Prestissimo scherzando
TTITLE12=Piano Concerto No.4, Op.99 'Prague' - I. Allegro molto e ener
TTITLE12=gico
TTITLE13=Piano Concerto No.4, Op.99 'Prague' - II. Molto sostenuto. Im
TTITLE13=provisato
TTITLE14=Piano Concerto No.4, Op.99 'Prague' - III. Vivo
EXTD=
EXTT0=
EXTT1=
EXTT2=
EXTT3=
EXTT4=
EXTT5=
EXTT6=
EXTT7=
EXTT8=
EXTT9=
EXTT10=
EXTT11=
EXTT12=
EXTT13=
EXTT14=
PLAYORDER=
